<svg width="28" height="28" viewBox="0 0 28 28" fill="none" xmlns="http://www.w3.org/2000/svg">
<path d="M8.27716 6.39106C8.52706 5.86888 8.66699 5.28403 8.66699 4.6665C8.66699 2.45736 6.87613 0.666504 4.66699 0.666504C2.45785 0.666504 0.666992 2.45736 0.666992 4.6665C0.666992 6.87564 2.45785 8.6665 4.66699 8.6665C5.28452 8.6665 5.86937 8.52657 6.39155 8.27668L8.43819 10.3233C7.74016 11.3772 7.33366 12.6411 7.33366 13.9998C7.33366 15.3586 7.74016 16.6224 8.43819 17.6764L6.69105 19.4235C6.47075 19.3646 6.23921 19.3332 6.00033 19.3332C4.52757 19.3332 3.33366 20.5271 3.33366 21.9998C3.33366 23.4726 4.52757 24.6665 6.00033 24.6665C7.47308 24.6665 8.66699 23.4726 8.66699 21.9998C8.66699 21.761 8.63558 21.5294 8.57667 21.3091L10.3238 19.562C11.3777 20.26 12.6416 20.6665 14.0003 20.6665C15.3591 20.6665 16.6229 20.26 17.6768 19.562L19.7235 21.6086C19.4736 22.1308 19.3337 22.7156 19.3337 23.3332C19.3337 25.5423 21.1245 27.3332 23.3337 27.3332C25.5428 27.3332 27.3337 25.5423 27.3337 23.3332C27.3337 21.124 25.5428 19.3332 23.3337 19.3332C22.7161 19.3332 22.1313 19.4731 21.6091 19.723L19.5625 17.6764C20.2605 16.6224 20.667 15.3586 20.667 13.9998C20.667 12.6411 20.2605 11.3772 19.5625 10.3233L21.3096 8.57618C21.5299 8.63509 21.7614 8.6665 22.0003 8.6665C23.4731 8.6665 24.667 7.4726 24.667 5.99984C24.667 4.52708 23.4731 3.33317 22.0003 3.33317C20.5276 3.33317 19.3337 4.52708 19.3337 5.99984C19.3337 6.23872 19.3651 6.47026 19.424 6.69056L17.6768 8.4377C16.6229 7.73967 15.3591 7.33317 14.0003 7.33317C12.6416 7.33317 11.3777 7.73967 10.3238 8.4377L8.27716 6.39106Z" fill="white"/>
</svg>
