<svg width="24" height="24" viewBox="0 0 24 24" fill="none" xmlns="http://www.w3.org/2000/svg">
<path d="M6.66667 0C2.98477 0 0 2.98477 0 6.66667C0 10.3486 2.98477 13.3333 6.66667 13.3333C10.3486 13.3333 13.3333 10.3486 13.3333 6.66667C13.3333 2.98477 10.3486 0 6.66667 0Z" fill="white"/>
<path d="M21.816 5.76931C21.3115 5.51225 20.7872 5.41716 20.26 5.37409C19.7606 5.33329 19.1543 5.33331 18.4514 5.33333L16 5.33334V6.66667C16 11.8213 11.8213 16 6.66667 16H5.33334L5.33333 18.4514C5.33331 19.1543 5.33329 19.7606 5.37409 20.26C5.41716 20.7872 5.51225 21.3115 5.76931 21.816C6.1528 22.5686 6.76473 23.1805 7.51737 23.564C8.02188 23.8211 8.54617 23.9162 9.0733 23.9592C9.5727 24 10.179 24 10.8818 24H18.4514C19.1542 24 19.7606 24 20.26 23.9592C20.7872 23.9162 21.3115 23.8211 21.816 23.564C22.5686 23.1805 23.1805 22.5686 23.564 21.816C23.8211 21.3115 23.9162 20.7872 23.9592 20.26C24 19.7606 24 19.1543 24 18.4515V10.882C24 10.1792 24 9.5727 23.9592 9.0733C23.9162 8.54617 23.8211 8.02188 23.564 7.51737C23.1805 6.76473 22.5686 6.1528 21.816 5.76931Z" fill="white"/>
</svg>
