<svg width="30" height="30" viewBox="0 0 30 30" fill="none" xmlns="http://www.w3.org/2000/svg">
<path fill-rule="evenodd" clip-rule="evenodd" d="M0.333008 15.0002C0.333008 6.89999 6.8995 0.333496 14.9997 0.333496C23.0998 0.333496 29.6663 6.89999 29.6663 15.0002C29.6663 23.1003 23.0998 29.6668 14.9997 29.6668C6.8995 29.6668 0.333008 23.1003 0.333008 15.0002ZM14.9997 4.3335C15.7361 4.3335 16.333 4.93045 16.333 5.66683V10.852C16.333 11.5884 15.7361 12.1853 14.9997 12.1853C14.2633 12.1853 13.6663 11.5884 13.6663 10.852V5.66683C13.6663 4.93045 14.2633 4.3335 14.9997 4.3335ZM24.333 16.3335C25.0694 16.3335 25.6663 15.7365 25.6663 15.0002C25.6663 14.2638 25.0694 13.6668 24.333 13.6668H19.1478C18.4114 13.6668 17.8145 14.2638 17.8145 15.0002C17.8145 15.7365 18.4114 16.3335 19.1478 16.3335H24.333ZM14.9997 17.815C15.7361 17.815 16.333 18.4119 16.333 19.1483V24.3335C16.333 25.0699 15.7361 25.6668 14.9997 25.6668C14.2633 25.6668 13.6663 25.0699 13.6663 24.3335V19.1483C13.6663 18.4119 14.2633 17.815 14.9997 17.815ZM10.8515 16.3335C11.5879 16.3335 12.1849 15.7365 12.1849 15.0002C12.1849 14.2638 11.5879 13.6668 10.8515 13.6668H5.66634C4.92996 13.6668 4.33301 14.2638 4.33301 15.0002C4.33301 15.7365 4.92996 16.3335 5.66634 16.3335H10.8515Z" fill="white"/>
</svg>
