<svg width="28" height="30" viewBox="0 0 28 30" fill="none" xmlns="http://www.w3.org/2000/svg">
<path d="M15.3337 10.8319C17.634 10.2398 19.3337 8.1517 19.3337 5.66658C19.3337 2.72107 16.9458 0.333252 14.0003 0.333252C11.0548 0.333252 8.66699 2.72107 8.66699 5.66658C8.66699 8.1517 10.3667 10.2398 12.667 10.8319V13.6666H8.66699C6.45785 13.6666 4.66699 15.4574 4.66699 17.6666V19.1679C2.36669 19.76 0.666992 21.8481 0.666992 24.3333C0.666992 27.2788 3.05481 29.6666 6.00033 29.6666C8.94584 29.6666 11.3337 27.2788 11.3337 24.3333C11.3337 21.8481 9.63396 19.76 7.33366 19.1679V17.6666C7.33366 16.9302 7.93061 16.3333 8.66699 16.3333H19.3337C20.07 16.3333 20.667 16.9302 20.667 17.6666V19.1679C18.3667 19.76 16.667 21.8481 16.667 24.3333C16.667 27.2788 19.0548 29.6666 22.0003 29.6666C24.9458 29.6666 27.3337 27.2788 27.3337 24.3333C27.3337 21.8481 25.634 19.76 23.3337 19.1679V17.6666C23.3337 15.4574 21.5428 13.6666 19.3337 13.6666H15.3337V10.8319Z" fill="white"/>
</svg>
