<svg width="28" height="30" viewBox="0 0 28 30" fill="none" xmlns="http://www.w3.org/2000/svg">
<path d="M22.0003 10.9999C24.9458 10.9999 27.3337 8.6121 27.3337 5.66658C27.3337 2.72107 24.9458 0.333252 22.0003 0.333252C19.0548 0.333252 16.667 2.72107 16.667 5.66658C16.667 6.16954 16.7366 6.65624 16.8667 7.11757L9.78903 11.2462C8.82254 10.2708 7.48199 9.66658 6.00033 9.66658C3.05481 9.66658 0.666992 12.0544 0.666992 14.9999C0.666992 17.9454 3.05481 20.3333 6.00033 20.3333C7.48199 20.3333 8.82254 19.7291 9.78903 18.7536L16.8667 22.8823C16.7366 23.3436 16.667 23.8303 16.667 24.3333C16.667 27.2788 19.0548 29.6666 22.0003 29.6666C24.9458 29.6666 27.3337 27.2788 27.3337 24.3333C27.3337 21.3877 24.9458 18.9999 22.0003 18.9999C20.5187 18.9999 19.1781 19.6041 18.2116 20.5796L11.1339 16.4509C11.264 15.9896 11.3337 15.5029 11.3337 14.9999C11.3337 14.497 11.264 14.0103 11.1339 13.5489L18.2116 9.42027C19.1781 10.3957 20.5187 10.9999 22.0003 10.9999Z" fill="white"/>
</svg>
